<?xml version="1.0" encoding="UTF-8" standalone="no"?>
<!-- Created with Inkscape (http://www.inkscape.org/) -->

<svg
   xmlns:dc="http://purl.org/dc/elements/1.1/"
   xmlns:cc="http://creativecommons.org/ns#"
   xmlns:rdf="http://www.w3.org/1999/02/22-rdf-syntax-ns#"
   xmlns:svg="http://www.w3.org/2000/svg"
   xmlns="http://www.w3.org/2000/svg"
   xmlns:xlink="http://www.w3.org/1999/xlink"
   xmlns:sodipodi="http://sodipodi.sourceforge.net/DTD/sodipodi-0.dtd"
   xmlns:inkscape="http://www.inkscape.org/namespaces/inkscape"
   width="95mm"
   height="50mm"
   viewBox="0 0 336.61417 177.16535"
   id="svg4109"
   version="1.1"
   inkscape:version="0.91 r13725"
   sodipodi:docname="strix_logo2.svg">
  <defs
     id="defs4111">
    <linearGradient
       id="linearGradient4448-7"
       inkscape:collect="always">
      <stop
         id="stop4458"
         offset="0"
         style="stop-color:#000000;stop-opacity:1;" />
      <stop
         style="stop-color:#552200;stop-opacity:1"
         offset="0.40370399"
         id="stop4462" />
      <stop
         id="stop4460"
         offset="1"
         style="stop-color:#d45500;stop-opacity:1" />
    </linearGradient>
    <linearGradient
       inkscape:collect="always"
       xlink:href="#linearGradient4448-7"
       id="linearGradient4454"
       x1="106.75343"
       y1="681.97253"
       x2="619.53577"
       y2="101.58122"
       gradientUnits="userSpaceOnUse" />
    <linearGradient
       inkscape:collect="always"
       xlink:href="#linearGradient4448-7"
       id="linearGradient4476"
       gradientUnits="userSpaceOnUse"
       x1="106.75343"
       y1="681.97253"
       x2="619.53577"
       y2="101.58122" />
    <linearGradient
       inkscape:collect="always"
       xlink:href="#linearGradient4448-7"
       id="linearGradient4478"
       gradientUnits="userSpaceOnUse"
       x1="106.75343"
       y1="681.97253"
       x2="619.53577"
       y2="101.58122" />
    <linearGradient
       inkscape:collect="always"
       xlink:href="#linearGradient4448-7"
       id="linearGradient4480"
       gradientUnits="userSpaceOnUse"
       x1="106.75343"
       y1="681.97253"
       x2="619.53577"
       y2="101.58122" />
    <linearGradient
       inkscape:collect="always"
       xlink:href="#linearGradient4448-7"
       id="linearGradient4482"
       gradientUnits="userSpaceOnUse"
       x1="106.75343"
       y1="681.97253"
       x2="619.53577"
       y2="101.58122" />
    <linearGradient
       inkscape:collect="always"
       xlink:href="#linearGradient4448-7"
       id="linearGradient4484"
       gradientUnits="userSpaceOnUse"
       x1="106.75343"
       y1="681.97253"
       x2="619.53577"
       y2="101.58122" />
    <linearGradient
       inkscape:collect="always"
       xlink:href="#linearGradient4448-7"
       id="linearGradient4486"
       gradientUnits="userSpaceOnUse"
       x1="106.75343"
       y1="681.97253"
       x2="619.53577"
       y2="101.58122" />
    <linearGradient
       inkscape:collect="always"
       xlink:href="#linearGradient4448-7"
       id="linearGradient4488"
       gradientUnits="userSpaceOnUse"
       x1="106.75343"
       y1="681.97253"
       x2="619.53577"
       y2="101.58122" />
    <linearGradient
       inkscape:collect="always"
       xlink:href="#linearGradient4448-7"
       id="linearGradient4490"
       gradientUnits="userSpaceOnUse"
       x1="106.75343"
       y1="681.97253"
       x2="619.53577"
       y2="101.58122" />
    <linearGradient
       inkscape:collect="always"
       xlink:href="#linearGradient4448-7"
       id="linearGradient4492"
       gradientUnits="userSpaceOnUse"
       x1="106.75343"
       y1="681.97253"
       x2="619.53577"
       y2="101.58122" />
    <linearGradient
       inkscape:collect="always"
       xlink:href="#linearGradient4448-7"
       id="linearGradient4494"
       gradientUnits="userSpaceOnUse"
       x1="106.75343"
       y1="681.97253"
       x2="619.53577"
       y2="101.58122" />
    <linearGradient
       inkscape:collect="always"
       xlink:href="#linearGradient4448-7"
       id="linearGradient4496"
       gradientUnits="userSpaceOnUse"
       x1="106.75343"
       y1="681.97253"
       x2="619.53577"
       y2="101.58122" />
    <linearGradient
       inkscape:collect="always"
       xlink:href="#linearGradient4448-7"
       id="linearGradient4498"
       gradientUnits="userSpaceOnUse"
       x1="106.75343"
       y1="681.97253"
       x2="619.53577"
       y2="101.58122" />
    <linearGradient
       inkscape:collect="always"
       xlink:href="#linearGradient4448-7"
       id="linearGradient4500"
       gradientUnits="userSpaceOnUse"
       x1="106.75343"
       y1="681.97253"
       x2="619.53577"
       y2="101.58122" />
    <linearGradient
       inkscape:collect="always"
       xlink:href="#linearGradient4448-7"
       id="linearGradient4502"
       gradientUnits="userSpaceOnUse"
       x1="106.75343"
       y1="681.97253"
       x2="619.53577"
       y2="101.58122" />
    <linearGradient
       inkscape:collect="always"
       xlink:href="#linearGradient4448-7"
       id="linearGradient4504"
       gradientUnits="userSpaceOnUse"
       x1="106.75343"
       y1="681.97253"
       x2="619.53577"
       y2="101.58122" />
    <linearGradient
       inkscape:collect="always"
       xlink:href="#linearGradient4448-7"
       id="linearGradient4506"
       gradientUnits="userSpaceOnUse"
       x1="106.75343"
       y1="681.97253"
       x2="619.53577"
       y2="101.58122" />
    <linearGradient
       inkscape:collect="always"
       xlink:href="#linearGradient4448-7"
       id="linearGradient4508"
       gradientUnits="userSpaceOnUse"
       x1="106.75343"
       y1="681.97253"
       x2="619.53577"
       y2="101.58122" />
    <linearGradient
       inkscape:collect="always"
       xlink:href="#linearGradient4448-7"
       id="linearGradient4510"
       gradientUnits="userSpaceOnUse"
       x1="106.75343"
       y1="681.97253"
       x2="619.53577"
       y2="101.58122" />
    <linearGradient
       inkscape:collect="always"
       xlink:href="#linearGradient4448-7"
       id="linearGradient4512"
       gradientUnits="userSpaceOnUse"
       x1="106.75343"
       y1="681.97253"
       x2="619.53577"
       y2="101.58122" />
    <linearGradient
       inkscape:collect="always"
       xlink:href="#linearGradient4448-7"
       id="linearGradient4514"
       gradientUnits="userSpaceOnUse"
       x1="106.75343"
       y1="681.97253"
       x2="619.53577"
       y2="101.58122" />
    <linearGradient
       inkscape:collect="always"
       xlink:href="#linearGradient4448-7"
       id="linearGradient4516"
       gradientUnits="userSpaceOnUse"
       x1="106.75343"
       y1="681.97253"
       x2="619.53577"
       y2="101.58122" />
    <linearGradient
       inkscape:collect="always"
       xlink:href="#linearGradient4448-7"
       id="linearGradient4518"
       gradientUnits="userSpaceOnUse"
       x1="106.75343"
       y1="681.97253"
       x2="619.53577"
       y2="101.58122" />
    <linearGradient
       inkscape:collect="always"
       xlink:href="#linearGradient4448-7"
       id="linearGradient4520"
       gradientUnits="userSpaceOnUse"
       x1="106.75343"
       y1="681.97253"
       x2="619.53577"
       y2="101.58122" />
    <linearGradient
       inkscape:collect="always"
       xlink:href="#linearGradient4448-7"
       id="linearGradient4522"
       gradientUnits="userSpaceOnUse"
       x1="106.75343"
       y1="681.97253"
       x2="619.53577"
       y2="101.58122" />
    <linearGradient
       inkscape:collect="always"
       xlink:href="#linearGradient4448-7"
       id="linearGradient4524"
       gradientUnits="userSpaceOnUse"
       x1="106.75343"
       y1="681.97253"
       x2="619.53577"
       y2="101.58122" />
    <linearGradient
       inkscape:collect="always"
       xlink:href="#linearGradient4448-7"
       id="linearGradient4526"
       gradientUnits="userSpaceOnUse"
       x1="106.75343"
       y1="681.97253"
       x2="619.53577"
       y2="101.58122" />
  </defs>
  <sodipodi:namedview
     id="base"
     pagecolor="#ffffff"
     bordercolor="#666666"
     borderopacity="1.0"
     inkscape:pageopacity="0.0"
     inkscape:pageshadow="2"
     inkscape:zoom="1.979899"
     inkscape:cx="161.23446"
     inkscape:cy="123.60434"
     inkscape:document-units="px"
     inkscape:current-layer="layer1"
     showgrid="false"
     inkscape:window-width="1600"
     inkscape:window-height="837"
     inkscape:window-x="-8"
     inkscape:window-y="-8"
     inkscape:window-maximized="1"
     fit-margin-top="0"
     fit-margin-left="0"
     fit-margin-right="0"
     fit-margin-bottom="0" />
  <metadata
     id="metadata4114">
    <rdf:RDF>
      <cc:Work
         rdf:about="">
        <dc:format>image/svg+xml</dc:format>
        <dc:type
           rdf:resource="http://purl.org/dc/dcmitype/StillImage" />
        <dc:title></dc:title>
      </cc:Work>
    </rdf:RDF>
  </metadata>
  <g
     inkscape:label="Ebene 1"
     inkscape:groupmode="layer"
     id="layer1"
     transform="translate(-68.767781,-424.95674)">
    <g
       id="g4046"
       transform="matrix(0.47688821,0,0,-0.47688821,-36.689898,702.20014)"
       style="opacity:1;fill:url(#linearGradient4454);fill-opacity:1;fill-rule:nonzero">
      <path
         d="m 437.344,328.168 c -0.11,14.277 -7.199,30.332 -19.184,39.941 -11.691,9.844 -25.207,15.227 -38.34,20.149 -26.457,10.359 -55.617,13.953 -78.613,27.351 -23.391,12.454 -34.398,38.762 -34.398,63.157 0.277,24.207 18.918,42.957 40.535,51.179 43.941,16.086 93.433,9.453 120.648,-12.402 13.817,-10.926 20.735,-26.113 20.528,-39.922 -0.219,-13.75 -4.809,-26.328 -9.332,-35.293 -9.641,-18.34 -18.7,-26.504 -17.516,-27.605 0.492,-0.664 11.277,5.632 23.57,24.148 5.879,9.504 11.867,21.758 13.289,38.438 1.43,16.621 -6.488,36.398 -22.324,49.894 -15.582,13.789 -37.102,22.227 -60.391,25.438 -23.289,2.871 -48.898,2.277 -74.55,-7.332 -12.668,-4.883 -25.266,-12.403 -35.176,-23.723 -9.977,-11.18 -16.289,-26.523 -16.828,-42.176 -0.231,-15.812 3.101,-30.351 10.019,-44.816 6.957,-14.356 19.059,-26.524 32.867,-34.442 28.04,-15.859 57.086,-18.703 81.723,-28.429 12.555,-4.493 24.531,-9.442 33.231,-16.68 8.765,-7.117 13.191,-16.68 13.75,-27.664 0.293,-20.246 -7.289,-52.063 -22.332,-47.219 -9.082,1.309 -19.805,6.555 -31.657,7.766 -12.586,1.238 -22.883,-2.649 -31.929,-5.117 -9.055,-2.707 -17.477,-5.02 -24.508,-4.512 -6.965,0.43 -11.906,4.316 -15.328,10.086 -6.641,11.789 -7.918,25.168 -8.118,35.176 0.075,20.675 7.473,30.879 5.879,31.64 -0.339,0.664 -10.414,-8.672 -12.839,-31.289 -0.778,-11.004 -0.957,-24.98 6.324,-40.379 3.469,-7.629 12.261,-15.617 22.844,-16.554 10.246,-1.2 19.781,1.347 29.066,3.605 9.273,2.234 18.609,4.91 26.973,3.613 9.027,-1.074 18.039,-6.144 31.105,-8.73 6.363,-1.36 16.066,-0.156 22.188,5.535 6.027,5.391 9.039,11.75 11.57,17.832 4.566,12.356 7.57,24.836 7.254,39.336"
         style="fill:url(#linearGradient4476);fill-opacity:1;fill-rule:nonzero;stroke:none"
         id="path16"
         inkscape:connector-curvature="0" />
      <path
         d="m 297.859,340.824 c -0.796,0.528 -6.648,-10.418 -3.843,-28.965 0.562,-4.804 2.015,-9.668 4.773,-14.89 2.727,-5.117 8.238,-10.352 15.242,-11.828 13.961,-2.821 26.559,3.281 39.016,5.273 12.066,2.832 22.797,-3.504 35.769,-5.586 6.426,-1.336 14.77,1.27 18.543,6.34 4.036,4.727 5.715,9.727 7.149,14.121 5.297,17.813 2.031,29.551 0.988,29.199 -1.441,-0.136 -0.691,-11.105 -7.121,-27.043 -3.195,-7.84 -8.301,-16.882 -18.316,-14.257 -9.77,1.679 -23.278,9.589 -38.555,6.281 -13.902,-2.539 -26.039,-7.91 -35.645,-6.067 -9.3,1.524 -13.636,11.907 -15.464,19.661 -4.184,16.648 -0.985,27.402 -2.536,27.761"
         style="fill:url(#linearGradient4478);fill-opacity:1;fill-rule:nonzero;stroke:none"
         id="path18"
         inkscape:connector-curvature="0" />
      <path
         d="m 329.641,299.605 c 8.25,-0.097 15.972,2.997 23.699,4.571 7.594,1.98 14.07,-0.137 21.269,-2.375 6.368,-2.5 16.477,-3.125 20.801,2.824 7.195,10.301 5.918,17.598 5.496,17.695 -1.218,0.606 -2.644,-7.101 -9.113,-14.16 -6.387,-8.242 -20.73,7.371 -39.895,3.016 -8.558,-1.844 -15.914,-4.824 -22.257,-4.981 -6.348,-0.457 -10.407,3.196 -12.828,7.668 -4.727,9.082 -4.84,16.25 -6.153,16.075 -0.582,0.058 -2.547,-7.11 1.598,-18.254 1.68,-5.469 8.633,-12.52 17.383,-12.079"
         style="fill:url(#linearGradient4480);fill-opacity:1;fill-rule:nonzero;stroke:none"
         id="path20"
         inkscape:connector-curvature="0" />
      <path
         d="m 462.766,334.332 c -1.969,31.426 -23.508,48.242 -26.032,44.746 -1.504,-1.301 -0.191,-5.273 1.918,-11.281 -4.273,4.101 -7.898,5.664 -8.847,4.355 -3.575,-3.086 8.64,-21.074 9.828,-45.75 1.914,-24.679 -7.891,-44.062 -4.004,-46.652 1.25,-1.336 5.351,1.328 9.559,7.16 6.097,3.309 19.238,21.192 17.578,47.422"
         style="fill:url(#linearGradient4482);fill-opacity:1;fill-rule:nonzero;stroke:none"
         id="path22"
         inkscape:connector-curvature="0" />
      <path
         d="m 271.934,326.402 c 1.187,24.676 13.402,42.664 9.836,45.75 -0.95,1.309 -4.582,-0.254 -8.848,-4.355 2.101,6.008 3.422,9.98 1.906,11.281 -2.515,3.496 -24.058,-13.32 -26.027,-44.746 -1.656,-26.23 11.48,-44.113 17.586,-47.422 4.195,-5.832 8.301,-8.496 9.551,-7.16 3.886,2.59 -5.915,21.973 -4.004,46.652"
         style="fill:url(#linearGradient4484);fill-opacity:1;fill-rule:nonzero;stroke:none"
         id="path24"
         inkscape:connector-curvature="0" />
      <path
         d="m 299.426,250.824 c 0,-15.672 10.558,-28.386 10.558,-28.386 0,0 10.575,12.714 10.575,28.386 0,15.684 -21.133,15.684 -21.133,0"
         style="fill:url(#linearGradient4486);fill-opacity:1;fill-rule:nonzero;stroke:none"
         id="path26"
         inkscape:connector-curvature="0" />
      <path
         d="m 301.77,260.816 c -6.235,4.219 -16.411,0.899 -16.411,-9.972 0,-15.692 10.571,-28.406 10.571,-28.406 0,0 3.023,3.652 5.84,9.421 -2.45,5.039 -4.735,11.692 -4.735,18.985 0,4.777 1.985,8.105 4.735,9.972"
         style="fill:url(#linearGradient4488);fill-opacity:1;fill-rule:nonzero;stroke:none"
         id="path28"
         inkscape:connector-curvature="0" />
      <path
         d="m 318.215,260.816 c 2.738,-1.867 4.719,-5.195 4.719,-9.972 0,-7.293 -2.282,-13.946 -4.719,-18.985 2.805,-5.769 5.828,-9.421 5.828,-9.421 0,0 10.57,12.714 10.57,28.406 0,10.871 -10.175,14.191 -16.398,9.972"
         style="fill:url(#linearGradient4490);fill-opacity:1;fill-rule:nonzero;stroke:none"
         id="path30"
         inkscape:connector-curvature="0" />
      <path
         d="m 391.012,250.824 c 0,-15.672 10.566,-28.386 10.566,-28.386 0,0 10.57,12.714 10.57,28.386 0,15.684 -21.136,15.684 -21.136,0"
         style="fill:url(#linearGradient4492);fill-opacity:1;fill-rule:nonzero;stroke:none"
         id="path32"
         inkscape:connector-curvature="0" />
      <path
         d="m 393.359,260.816 c -6.226,4.219 -16.406,0.899 -16.406,-9.972 0,-15.692 10.567,-28.406 10.567,-28.406 0,0 3.027,3.652 5.839,9.421 -2.445,5.039 -4.73,11.692 -4.73,18.985 0,4.777 1.984,8.105 4.73,9.972"
         style="fill:url(#linearGradient4494);fill-opacity:1;fill-rule:nonzero;stroke:none"
         id="path34"
         inkscape:connector-curvature="0" />
      <path
         d="m 409.801,260.816 c 2.742,-1.867 4.73,-5.195 4.73,-9.972 0,-7.293 -2.285,-13.946 -4.73,-18.985 2.812,-5.769 5.84,-9.421 5.84,-9.421 0,0 10.566,12.714 10.566,28.406 0,10.871 -10.176,14.191 -16.406,9.972"
         style="fill:url(#linearGradient4496);fill-opacity:1;fill-rule:nonzero;stroke:none"
         id="path36"
         inkscape:connector-curvature="0" />
      <path
         d="m 370.84,467.914 c 0.527,3.078 0.844,6.27 0.844,9.551 0,23.605 -31.801,23.605 -31.801,0 0,-3.281 0.32,-6.473 0.847,-9.551 -1.359,-1.59 -2.757,-3.379 -4.164,-5.457 -4.222,-6.477 -3.164,-13.105 0.946,-15.637 2.582,-1.648 6.312,-1.746 10.558,-0.019 3.899,-7.469 7.711,-12.051 7.711,-12.051 0,0 3.821,4.582 7.711,12.051 4.25,-1.727 7.985,-1.629 10.567,0.019 4.109,2.532 5.171,9.16 0.941,15.637 -1.402,2.078 -2.805,3.867 -4.16,5.457"
         style="fill:url(#linearGradient4498);fill-opacity:1;fill-rule:nonzero;stroke:none"
         id="path38"
         inkscape:connector-curvature="0" />
      <path
         d="m 295.461,462.711 c 0.793,-1.035 1.352,-1.523 1.293,-1.523 0.125,0.097 -0.422,0.566 -1.293,1.523"
         style="fill:url(#linearGradient4500);fill-opacity:1;fill-rule:nonzero;stroke:none"
         id="path40"
         inkscape:connector-curvature="0" />
      <path
         d="m 334.922,486.762 c 1.277,0.312 1.137,6.203 -5.402,11.933 -1.047,1.035 -2.364,1.965 -3.872,2.785 0.868,2.059 -2.468,6.727 -7.242,13.555 -2.343,4.414 -4.953,9.832 -7.062,16.043 -5.719,15.918 -5.989,30.176 -8.274,30.235 -1.175,0.195 -3.054,-7.137 -1.976,-17.579 -6.121,12.325 -9.727,22.071 -13.102,21.602 -3.617,-0.176 -5.301,-19.148 5.969,-39.043 -9.273,11.328 -13.984,22.336 -16,21.621 -1.695,-0.351 0.629,-14.891 12.156,-28.348 7.09,-8.457 15.356,-13.359 20.735,-15.363 -4.122,-0.449 -8.309,-1.922 -12.02,-4.824 -10.285,-8.106 -11.437,-21.055 -8.555,-27.938 1.625,-4.472 3.809,-7.218 5.184,-8.73 -1.25,1.629 -3.113,4.59 -4.094,9.023 -1.965,6.954 1.227,18.231 10.379,23.309 9.192,4.961 18.801,2.355 23.938,-1.297 5.5,-3.586 7.593,-7.687 9.238,-6.984"
         style="fill:url(#linearGradient4502);fill-opacity:1;fill-rule:nonzero;stroke:none"
         id="path42"
         inkscape:connector-curvature="0" />
      <path
         d="m 312.563,487.75 c -5.93,0 -10.743,-4.797 -10.743,-10.754 0,-5.926 4.813,-10.73 10.743,-10.73 5.933,0 10.742,4.804 10.742,10.73 0,5.957 -4.809,10.754 -10.742,10.754"
         style="fill:url(#linearGradient4504);fill-opacity:1;fill-rule:nonzero;stroke:none"
         id="path44"
         inkscape:connector-curvature="0" />
      <path
         d="m 412.73,499.379 c -3.707,2.902 -7.894,4.375 -12.015,4.824 5.375,2.004 13.648,6.906 20.73,15.363 11.539,13.457 13.864,27.997 12.168,28.348 -2.019,0.715 -6.734,-10.293 -16.008,-21.621 11.274,19.895 9.59,38.867 5.965,39.043 -3.375,0.469 -6.972,-9.277 -13.097,-21.602 1.082,10.442 -0.801,17.774 -1.977,17.579 -2.289,-0.059 -2.558,-14.317 -8.266,-30.235 -2.109,-6.211 -4.726,-11.629 -7.066,-16.043 -4.773,-6.828 -8.109,-11.496 -7.246,-13.555 -1.504,-0.82 -2.828,-1.75 -3.875,-2.785 -6.539,-5.73 -6.676,-11.621 -5.398,-11.933 1.652,-0.703 3.746,3.398 9.238,6.984 5.14,3.652 14.746,6.258 23.941,1.297 9.156,-5.078 12.344,-16.355 10.375,-23.309 -0.984,-4.433 -2.84,-7.394 -4.094,-9.023 1.375,1.512 3.559,4.258 5.18,8.73 2.891,6.883 1.738,19.832 -8.555,27.938"
         style="fill:url(#linearGradient4506);fill-opacity:1;fill-rule:nonzero;stroke:none"
         id="path46"
         inkscape:connector-curvature="0" />
      <path
         d="m 414.809,461.188 c -0.059,0 0.504,0.488 1.296,1.523 -0.871,-0.957 -1.417,-1.426 -1.296,-1.523"
         style="fill:url(#linearGradient4508);fill-opacity:1;fill-rule:nonzero;stroke:none"
         id="path48"
         inkscape:connector-curvature="0" />
      <path
         d="m 399.004,487.75 c -5.934,0 -10.742,-4.797 -10.742,-10.754 0,-5.926 4.808,-10.73 10.742,-10.73 5.934,0 10.742,4.804 10.742,10.73 0,5.957 -4.808,10.754 -10.742,10.754"
         style="fill:url(#linearGradient4510);fill-opacity:1;fill-rule:nonzero;stroke:none"
         id="path50"
         inkscape:connector-curvature="0" />
      <path
         d="m 504.938,476.852 c 0.003,-0.02 0.085,0 0.214,0.046 -0.148,-0.007 -0.23,-0.027 -0.214,-0.046"
         style="fill:url(#linearGradient4512);fill-opacity:1;fill-rule:nonzero;stroke:none"
         id="path76"
         inkscape:connector-curvature="0" />
      <path
         d="m 500.523,482.086 c 0.012,-0.031 0.129,0.019 0.297,0.086 -0.207,-0.027 -0.308,-0.067 -0.297,-0.086"
         style="fill:url(#linearGradient4514);fill-opacity:1;fill-rule:nonzero;stroke:none"
         id="path78"
         inkscape:connector-curvature="0" />
      <path
         d="m 498.324,487.543 c -0.199,-0.066 -0.301,-0.105 -0.293,-0.137 0.02,-0.039 0.117,0.012 0.293,0.137"
         style="fill:url(#linearGradient4516);fill-opacity:1;fill-rule:nonzero;stroke:none"
         id="path82"
         inkscape:connector-curvature="0" />
      <path
         d="m 497.184,494.066 c -0.114,-0.046 -0.192,-0.078 -0.18,-0.097 0.004,-0.039 0.07,0.019 0.18,0.097"
         style="fill:url(#linearGradient4518);fill-opacity:1;fill-rule:nonzero;stroke:none"
         id="path84"
         inkscape:connector-curvature="0" />
      <path
         d="m 497.031,502.809 c -0.039,-0.012 -0.078,-0.032 -0.078,-0.032 0.012,-0.019 0.039,0 0.078,0.032"
         style="fill:url(#linearGradient4520);fill-opacity:1;fill-rule:nonzero;stroke:none"
         id="path86"
         inkscape:connector-curvature="0" />
      <path
         d="m 235.855,254.848 c 0.192,0.019 0.313,0.039 0.329,0.078 0.027,0.019 -0.094,-0.02 -0.329,-0.078"
         style="fill:url(#linearGradient4522);fill-opacity:1;fill-rule:nonzero;stroke:none"
         id="path158"
         inkscape:connector-curvature="0" />
      <path
         d="m 228.285,262.758 c 0.028,0.019 -0.101,0 -0.351,-0.059 0.203,0.02 0.324,0.02 0.351,0.059"
         style="fill:url(#linearGradient4524);fill-opacity:1;fill-rule:nonzero;stroke:none"
         id="path160"
         inkscape:connector-curvature="0" />
      <path
         d="m 220.078,271.547 c 0.016,0 0.043,0 0.051,0 0,0.019 -0.016,0.019 -0.051,0"
         style="fill:url(#linearGradient4526);fill-opacity:1;fill-rule:nonzero;stroke:none"
         id="path162"
         inkscape:connector-curvature="0" />
    </g>
    <text
       xml:space="preserve"
       style="font-style:normal;font-weight:normal;font-size:180px;line-height:125%;font-family:sans-serif;letter-spacing:0px;word-spacing:0px;fill:#000000;fill-opacity:1;stroke:none;stroke-width:1px;stroke-linecap:butt;stroke-linejoin:miter;stroke-opacity:1"
       x="192.18529"
       y="578.21735"
       id="text4209"
       sodipodi:linespacing="125%"><tspan
         sodipodi:role="line"
         id="tspan4211"
         x="192.18529"
         y="578.21735"
         style="font-style:normal;font-variant:normal;font-weight:normal;font-stretch:normal;font-family:'MAXWELL REGULAR';-inkscape-font-specification:'MAXWELL REGULAR, '">trix</tspan></text>
  </g>
</svg>
